<mxfile host="www.draw.io" modified="2019-11-01T04:02:29.306Z" agent="Mozilla/5.0 (Macintosh; Intel Mac OS X 10_14_6) AppleWebKit/537.36 (KHTML, like Gecko) Chrome/77.0.3865.120 Safari/537.36" etag="z0e-yhxb0jpnqQGsh2ty" version="12.1.9" type="github" pages="1">
  <diagram id="6N9Lc9pMWOgSixIRD2WJ" name="Page-1">
    <mxGraphModel dx="1426" dy="794" grid="1" gridSize="10" guides="1" tooltips="1" connect="1" arrows="1" fold="1" page="1" pageScale="1" pageWidth="1654" pageHeight="1169" math="0" shadow="0">
      <root>
        <mxCell id="0"/>
        <mxCell id="1" parent="0"/>
        <mxCell id="VP3WnVtuw5z_MA5Xlhoa-38" value="" style="edgeStyle=orthogonalEdgeStyle;rounded=0;orthogonalLoop=1;jettySize=auto;html=1;entryX=0.5;entryY=0;entryDx=0;entryDy=0;shape=link;" edge="1" parent="1" source="VP3WnVtuw5z_MA5Xlhoa-14" target="VP3WnVtuw5z_MA5Xlhoa-53">
          <mxGeometry relative="1" as="geometry">
            <mxPoint x="680" y="480" as="targetPoint"/>
            <Array as="points"/>
          </mxGeometry>
        </mxCell>
        <mxCell id="VP3WnVtuw5z_MA5Xlhoa-42" value="" style="edgeStyle=orthogonalEdgeStyle;rounded=0;orthogonalLoop=1;jettySize=auto;html=1;entryX=1;entryY=0.5;entryDx=0;entryDy=0;shape=link;" edge="1" parent="1" source="VP3WnVtuw5z_MA5Xlhoa-14" target="VP3WnVtuw5z_MA5Xlhoa-15">
          <mxGeometry relative="1" as="geometry">
            <mxPoint x="840" y="320" as="targetPoint"/>
            <Array as="points">
              <mxPoint x="629" y="200"/>
            </Array>
          </mxGeometry>
        </mxCell>
        <mxCell id="VP3WnVtuw5z_MA5Xlhoa-60" value="" style="edgeStyle=orthogonalEdgeStyle;rounded=0;orthogonalLoop=1;jettySize=auto;html=1;strokeColor=#000000;fontColor=#3333FF;shape=link;" edge="1" parent="1" source="VP3WnVtuw5z_MA5Xlhoa-14" target="VP3WnVtuw5z_MA5Xlhoa-16">
          <mxGeometry relative="1" as="geometry"/>
        </mxCell>
        <mxCell id="VP3WnVtuw5z_MA5Xlhoa-70" value="" style="edgeStyle=orthogonalEdgeStyle;rounded=0;orthogonalLoop=1;jettySize=auto;html=1;strokeColor=#000000;fontColor=#3333FF;shape=link;" edge="1" parent="1" target="VP3WnVtuw5z_MA5Xlhoa-68">
          <mxGeometry relative="1" as="geometry">
            <mxPoint x="760" y="305" as="sourcePoint"/>
            <mxPoint x="840" y="305" as="targetPoint"/>
            <Array as="points">
              <mxPoint x="910" y="305"/>
              <mxPoint x="910" y="305"/>
            </Array>
          </mxGeometry>
        </mxCell>
        <mxCell id="VP3WnVtuw5z_MA5Xlhoa-75" value="" style="edgeStyle=orthogonalEdgeStyle;rounded=0;orthogonalLoop=1;jettySize=auto;html=1;strokeColor=#000000;fontColor=#3333FF;entryX=0;entryY=0.25;entryDx=0;entryDy=0;shape=link;" edge="1" parent="1" source="VP3WnVtuw5z_MA5Xlhoa-14" target="VP3WnVtuw5z_MA5Xlhoa-73">
          <mxGeometry relative="1" as="geometry">
            <mxPoint x="840" y="320" as="targetPoint"/>
          </mxGeometry>
        </mxCell>
        <mxCell id="VP3WnVtuw5z_MA5Xlhoa-14" value="&lt;span&gt;App&lt;/span&gt;" style="whiteSpace=wrap;html=1;aspect=fixed;strokeColor=#82b366;fillColor=#d5e8d4;align=center;fontStyle=1" vertex="1" parent="1">
          <mxGeometry x="600" y="240" width="160" height="160" as="geometry"/>
        </mxCell>
        <mxCell id="VP3WnVtuw5z_MA5Xlhoa-15" value="Background&lt;span style=&quot;font-family: &amp;#34;helvetica&amp;#34; , &amp;#34;arial&amp;#34; , sans-serif ; font-size: 0px ; white-space: nowrap&quot;&gt;%3CmxGraphModel%3E%3Croot%3E%3CmxCell%20id%3D%220%22%2F%3E%3CmxCell%20id%3D%221%22%20parent%3D%220%22%2F%3E%3CmxCell%20id%3D%222%22%20value%3D%22Functional%20Components%22%20style%3D%22text%3Bhtml%3D1%3BstrokeColor%3Dnone%3BfillColor%3Dnone%3Balign%3Dleft%3BverticalAlign%3Dmiddle%3BwhiteSpace%3Dwrap%3Brounded%3D0%3Bdashed%3D1%3B%22%20vertex%3D%221%22%20parent%3D%221%22%3E%3CmxGeometry%20x%3D%221530%22%20y%3D%22225%22%20width%3D%2270%22%20height%3D%2220%22%20as%3D%22geometry%22%2F%3E%3C%2FmxCell%3E%3C%2Froot%3E%3C%2FmxGraphModel%3E&lt;/span&gt;" style="rounded=0;whiteSpace=wrap;html=1;strokeColor=#b85450;fillColor=#f8cecc;align=center;fontStyle=1" vertex="1" parent="1">
          <mxGeometry x="440" y="160" width="120" height="80" as="geometry"/>
        </mxCell>
        <mxCell id="VP3WnVtuw5z_MA5Xlhoa-16" value="Footer" style="rounded=0;whiteSpace=wrap;html=1;strokeColor=#82b366;fillColor=#d5e8d4;align=center;fontStyle=1" vertex="1" parent="1">
          <mxGeometry x="440" y="280" width="120" height="80" as="geometry"/>
        </mxCell>
        <mxCell id="VP3WnVtuw5z_MA5Xlhoa-39" value="" style="edgeStyle=orthogonalEdgeStyle;rounded=0;orthogonalLoop=1;jettySize=auto;html=1;shape=link;" edge="1" parent="1" source="VP3WnVtuw5z_MA5Xlhoa-17" target="VP3WnVtuw5z_MA5Xlhoa-18">
          <mxGeometry relative="1" as="geometry"/>
        </mxCell>
        <mxCell id="VP3WnVtuw5z_MA5Xlhoa-17" value="Header" style="rounded=0;whiteSpace=wrap;html=1;strokeColor=#b85450;fillColor=#f8cecc;align=center;fontStyle=1" vertex="1" parent="1">
          <mxGeometry x="440" y="400" width="120" height="80" as="geometry"/>
        </mxCell>
        <mxCell id="VP3WnVtuw5z_MA5Xlhoa-18" value="WeatherWidgetSml" style="rounded=0;whiteSpace=wrap;html=1;strokeColor=#82b366;fillColor=#d5e8d4;align=center;fontStyle=1" vertex="1" parent="1">
          <mxGeometry x="240" y="400" width="120" height="80" as="geometry"/>
        </mxCell>
        <mxCell id="VP3WnVtuw5z_MA5Xlhoa-30" value="" style="edgeStyle=orthogonalEdgeStyle;rounded=0;orthogonalLoop=1;jettySize=auto;html=1;entryX=-0.017;entryY=0.413;entryDx=0;entryDy=0;entryPerimeter=0;shape=link;" edge="1" parent="1" source="VP3WnVtuw5z_MA5Xlhoa-26" target="VP3WnVtuw5z_MA5Xlhoa-28">
          <mxGeometry relative="1" as="geometry">
            <mxPoint x="606.5" y="85" as="targetPoint"/>
            <Array as="points">
              <mxPoint x="550" y="83"/>
              <mxPoint x="550" y="83"/>
            </Array>
          </mxGeometry>
        </mxCell>
        <mxCell id="VP3WnVtuw5z_MA5Xlhoa-26" value="" style="aspect=fixed;html=1;points=[];align=center;image;fontSize=12;image=img/lib/mscae/Database_General.svg;strokeColor=#D642B8;fillColor=#F859DE;" vertex="1" parent="1">
          <mxGeometry x="473.5" y="50" width="53" height="70" as="geometry"/>
        </mxCell>
        <mxCell id="VP3WnVtuw5z_MA5Xlhoa-32" value="" style="edgeStyle=orthogonalEdgeStyle;rounded=0;orthogonalLoop=1;jettySize=auto;html=1;entryX=0.5;entryY=0;entryDx=0;entryDy=0;shape=link;" edge="1" parent="1" source="VP3WnVtuw5z_MA5Xlhoa-28" target="VP3WnVtuw5z_MA5Xlhoa-14">
          <mxGeometry relative="1" as="geometry">
            <mxPoint x="680" y="210" as="targetPoint"/>
          </mxGeometry>
        </mxCell>
        <mxCell id="VP3WnVtuw5z_MA5Xlhoa-28" value="index" style="rounded=0;whiteSpace=wrap;html=1;strokeColor=#82b366;fillColor=#d5e8d4;align=center;fontStyle=1" vertex="1" parent="1">
          <mxGeometry x="620" y="50" width="120" height="80" as="geometry"/>
        </mxCell>
        <mxCell id="VP3WnVtuw5z_MA5Xlhoa-33" value="data.js" style="text;html=1;strokeColor=none;fillColor=none;align=center;verticalAlign=middle;whiteSpace=wrap;rounded=0;" vertex="1" parent="1">
          <mxGeometry x="470" y="120" width="60" height="20" as="geometry"/>
        </mxCell>
        <mxCell id="VP3WnVtuw5z_MA5Xlhoa-36" value="sliderImages={data.slider_images}&lt;br&gt;apiKeys={data.api_keys}&lt;br&gt;links={data.links}" style="text;html=1;strokeColor=none;fillColor=none;align=left;verticalAlign=middle;whiteSpace=wrap;rounded=0;" vertex="1" parent="1">
          <mxGeometry x="690" y="135" width="190" height="80" as="geometry"/>
        </mxCell>
        <mxCell id="VP3WnVtuw5z_MA5Xlhoa-43" value="&lt;font color=&quot;#ff0080&quot;&gt;handleTempToggle={handleTempType}&lt;/font&gt;&lt;br&gt;tempType={tempType}&lt;br&gt;links={props.links}&lt;br&gt;&lt;font color=&quot;#ff0080&quot;&gt;readableDate={readableDate}&lt;/font&gt;" style="text;html=1;strokeColor=none;fillColor=none;align=left;verticalAlign=middle;whiteSpace=wrap;rounded=0;" vertex="1" parent="1">
          <mxGeometry x="690" y="400" width="250" height="80" as="geometry"/>
        </mxCell>
        <mxCell id="VP3WnVtuw5z_MA5Xlhoa-47" value="&lt;font color=&quot;#ff0080&quot;&gt;handleTempToggle={this.props.handleTempType}&lt;/font&gt;&lt;br&gt;tempType={this.props.tempType}&lt;br&gt;&lt;font color=&quot;#ff0080&quot;&gt;readableDate={this.props.readableDate}&lt;/font&gt;" style="text;html=1;strokeColor=none;fillColor=none;align=left;verticalAlign=middle;whiteSpace=wrap;rounded=0;" vertex="1" parent="1">
          <mxGeometry x="270" y="470" width="270" height="80" as="geometry"/>
        </mxCell>
        <mxCell id="VP3WnVtuw5z_MA5Xlhoa-53" value="&lt;b&gt;MobileHeader&lt;/b&gt;" style="rounded=0;whiteSpace=wrap;html=1;dashed=1;" vertex="1" parent="1">
          <mxGeometry x="620" y="490" width="120" height="80" as="geometry"/>
        </mxCell>
        <mxCell id="VP3WnVtuw5z_MA5Xlhoa-58" value="" style="endArrow=classic;html=1;strokeColor=#000000;fontColor=#3333FF;entryX=1;entryY=0.5;entryDx=0;entryDy=0;shape=link;" edge="1" parent="1" target="VP3WnVtuw5z_MA5Xlhoa-17">
          <mxGeometry width="50" height="50" relative="1" as="geometry">
            <mxPoint x="680" y="440" as="sourcePoint"/>
            <mxPoint x="290" y="590" as="targetPoint"/>
          </mxGeometry>
        </mxCell>
        <mxCell id="VP3WnVtuw5z_MA5Xlhoa-59" value="ScrollToTopOnMountClass" style="rounded=0;whiteSpace=wrap;html=1;strokeColor=#b85450;fillColor=#f8cecc;align=center;fontStyle=1" vertex="1" parent="1">
          <mxGeometry x="1090" y="120" width="170" height="80" as="geometry"/>
        </mxCell>
        <mxCell id="VP3WnVtuw5z_MA5Xlhoa-62" value="" style="edgeStyle=orthogonalEdgeStyle;rounded=0;orthogonalLoop=1;jettySize=auto;html=1;strokeColor=#000000;fontColor=#3333FF;entryX=0.624;entryY=1.013;entryDx=0;entryDy=0;entryPerimeter=0;shape=link;" edge="1" parent="1" source="VP3WnVtuw5z_MA5Xlhoa-61" target="VP3WnVtuw5z_MA5Xlhoa-59">
          <mxGeometry relative="1" as="geometry">
            <mxPoint x="1150" y="243" as="targetPoint"/>
            <Array as="points">
              <mxPoint x="1146" y="260"/>
              <mxPoint x="1146" y="260"/>
            </Array>
          </mxGeometry>
        </mxCell>
        <mxCell id="VP3WnVtuw5z_MA5Xlhoa-65" value="" style="edgeStyle=orthogonalEdgeStyle;rounded=0;orthogonalLoop=1;jettySize=auto;html=1;strokeColor=#000000;fontColor=#3333FF;entryX=1;entryY=0.75;entryDx=0;entryDy=0;shape=link;" edge="1" parent="1" source="VP3WnVtuw5z_MA5Xlhoa-61" target="VP3WnVtuw5z_MA5Xlhoa-63">
          <mxGeometry relative="1" as="geometry">
            <mxPoint x="1010" y="325" as="targetPoint"/>
            <Array as="points">
              <mxPoint x="1110" y="225"/>
            </Array>
          </mxGeometry>
        </mxCell>
        <mxCell id="VP3WnVtuw5z_MA5Xlhoa-78" value="" style="edgeStyle=orthogonalEdgeStyle;shape=link;rounded=0;orthogonalLoop=1;jettySize=auto;html=1;strokeColor=#000000;fontColor=#3333FF;entryX=1;entryY=0.15;entryDx=0;entryDy=0;entryPerimeter=0;" edge="1" parent="1" source="VP3WnVtuw5z_MA5Xlhoa-61" target="VP3WnVtuw5z_MA5Xlhoa-14">
          <mxGeometry relative="1" as="geometry">
            <mxPoint x="1290" y="285" as="targetPoint"/>
            <Array as="points">
              <mxPoint x="1010" y="264"/>
              <mxPoint x="1010" y="264"/>
            </Array>
          </mxGeometry>
        </mxCell>
        <mxCell id="VP3WnVtuw5z_MA5Xlhoa-61" value="Home&amp;nbsp;" style="html=1;strokeColor=#00FFFF;fillColor=#f8cecc;labelPosition=center;verticalLabelPosition=middle;verticalAlign=top;align=center;fontSize=12;outlineConnect=0;spacingTop=-6;shape=mxgraph.sitemap.page;" vertex="1" parent="1">
          <mxGeometry x="1090" y="245" width="120" height="80" as="geometry"/>
        </mxCell>
        <mxCell id="VP3WnVtuw5z_MA5Xlhoa-63" value="&lt;b&gt;Slider&lt;/b&gt;" style="rounded=0;whiteSpace=wrap;html=1;dashed=1;" vertex="1" parent="1">
          <mxGeometry x="890" y="165" width="120" height="80" as="geometry"/>
        </mxCell>
        <mxCell id="VP3WnVtuw5z_MA5Xlhoa-76" value="" style="edgeStyle=orthogonalEdgeStyle;rounded=0;orthogonalLoop=1;jettySize=auto;html=1;strokeColor=#000000;fontColor=#3333FF;shape=link;" edge="1" parent="1" source="VP3WnVtuw5z_MA5Xlhoa-68" target="VP3WnVtuw5z_MA5Xlhoa-59">
          <mxGeometry relative="1" as="geometry">
            <mxPoint x="1210" y="190" as="targetPoint"/>
            <Array as="points">
              <mxPoint x="1230" y="340"/>
              <mxPoint x="1230" y="190"/>
            </Array>
          </mxGeometry>
        </mxCell>
        <mxCell id="VP3WnVtuw5z_MA5Xlhoa-68" value="Geology" style="html=1;strokeColor=#00FFFF;fillColor=#d5e8d4;labelPosition=center;verticalLabelPosition=middle;verticalAlign=top;align=center;fontSize=12;outlineConnect=0;spacingTop=-6;shape=mxgraph.sitemap.page;" vertex="1" parent="1">
          <mxGeometry x="950" y="280" width="120" height="80" as="geometry"/>
        </mxCell>
        <mxCell id="VP3WnVtuw5z_MA5Xlhoa-82" value="" style="edgeStyle=orthogonalEdgeStyle;shape=link;rounded=0;orthogonalLoop=1;jettySize=auto;html=1;strokeColor=#000000;fontColor=#3333FF;" edge="1" parent="1" source="VP3WnVtuw5z_MA5Xlhoa-73" target="VP3WnVtuw5z_MA5Xlhoa-59">
          <mxGeometry relative="1" as="geometry">
            <mxPoint x="1290" y="390" as="targetPoint"/>
            <Array as="points">
              <mxPoint x="1239" y="360"/>
            </Array>
          </mxGeometry>
        </mxCell>
        <mxCell id="VP3WnVtuw5z_MA5Xlhoa-73" value="&lt;b&gt;Map&lt;/b&gt;" style="rounded=0;whiteSpace=wrap;html=1;dashed=1;" vertex="1" parent="1">
          <mxGeometry x="1090" y="350" width="120" height="80" as="geometry"/>
        </mxCell>
        <mxCell id="VP3WnVtuw5z_MA5Xlhoa-83" value="" style="group" vertex="1" connectable="0" parent="1">
          <mxGeometry x="1420" y="40" width="180" height="410" as="geometry"/>
        </mxCell>
        <mxCell id="VP3WnVtuw5z_MA5Xlhoa-1" value="" style="rounded=0;whiteSpace=wrap;html=1;fillColor=#f5f5f5;strokeColor=#666666;fontColor=#333333;" vertex="1" parent="VP3WnVtuw5z_MA5Xlhoa-83">
          <mxGeometry width="180" height="410" as="geometry"/>
        </mxCell>
        <mxCell id="VP3WnVtuw5z_MA5Xlhoa-2" value="" style="rounded=0;whiteSpace=wrap;html=1;fillColor=#d5e8d4;strokeColor=#82b366;" vertex="1" parent="VP3WnVtuw5z_MA5Xlhoa-83">
          <mxGeometry x="20" y="30" width="50" height="30" as="geometry"/>
        </mxCell>
        <mxCell id="VP3WnVtuw5z_MA5Xlhoa-3" value="" style="rounded=0;whiteSpace=wrap;html=1;fillColor=#f8cecc;strokeColor=#b85450;" vertex="1" parent="VP3WnVtuw5z_MA5Xlhoa-83">
          <mxGeometry x="20" y="80" width="50" height="30" as="geometry"/>
        </mxCell>
        <mxCell id="VP3WnVtuw5z_MA5Xlhoa-4" value="" style="rounded=0;whiteSpace=wrap;html=1;dashed=1;" vertex="1" parent="VP3WnVtuw5z_MA5Xlhoa-83">
          <mxGeometry x="20" y="130" width="50" height="30" as="geometry"/>
        </mxCell>
        <mxCell id="VP3WnVtuw5z_MA5Xlhoa-5" value="Page" style="html=1;labelPosition=center;verticalLabelPosition=middle;verticalAlign=top;align=center;fontSize=12;outlineConnect=0;spacingTop=-6;shape=mxgraph.sitemap.page;fillColor=#d5e8d4;strokeColor=#00FFFF;" vertex="1" parent="VP3WnVtuw5z_MA5Xlhoa-83">
          <mxGeometry x="20" y="185" width="50" height="30" as="geometry"/>
        </mxCell>
        <mxCell id="VP3WnVtuw5z_MA5Xlhoa-6" value="" style="pointerEvents=1;shadow=0;dashed=0;html=1;strokeColor=#b85450;labelPosition=center;verticalLabelPosition=bottom;verticalAlign=top;align=center;fillColor=#F859DE;shape=mxgraph.mscae.intune.update" vertex="1" parent="VP3WnVtuw5z_MA5Xlhoa-83">
          <mxGeometry x="25" y="310" width="30" height="30" as="geometry"/>
        </mxCell>
        <mxCell id="VP3WnVtuw5z_MA5Xlhoa-7" value="KEY" style="text;html=1;strokeColor=none;fillColor=none;align=center;verticalAlign=middle;whiteSpace=wrap;rounded=0;dashed=1;" vertex="1" parent="VP3WnVtuw5z_MA5Xlhoa-83">
          <mxGeometry x="60" y="10" width="40" height="20" as="geometry"/>
        </mxCell>
        <mxCell id="VP3WnVtuw5z_MA5Xlhoa-8" value="Functional Components" style="text;html=1;strokeColor=none;fillColor=none;align=left;verticalAlign=middle;whiteSpace=wrap;rounded=0;dashed=1;" vertex="1" parent="VP3WnVtuw5z_MA5Xlhoa-83">
          <mxGeometry x="90" y="35" width="70" height="20" as="geometry"/>
        </mxCell>
        <mxCell id="VP3WnVtuw5z_MA5Xlhoa-9" value="Class Components" style="text;html=1;strokeColor=none;fillColor=none;align=left;verticalAlign=middle;whiteSpace=wrap;rounded=0;dashed=1;" vertex="1" parent="VP3WnVtuw5z_MA5Xlhoa-83">
          <mxGeometry x="90" y="85" width="70" height="20" as="geometry"/>
        </mxCell>
        <mxCell id="VP3WnVtuw5z_MA5Xlhoa-10" value="Pending Components" style="text;html=1;strokeColor=none;fillColor=none;align=left;verticalAlign=middle;whiteSpace=wrap;rounded=0;dashed=1;" vertex="1" parent="VP3WnVtuw5z_MA5Xlhoa-83">
          <mxGeometry x="90" y="135" width="70" height="20" as="geometry"/>
        </mxCell>
        <mxCell id="VP3WnVtuw5z_MA5Xlhoa-11" value="Webpage Component (functional)" style="text;html=1;strokeColor=none;fillColor=none;align=left;verticalAlign=middle;whiteSpace=wrap;rounded=0;dashed=1;" vertex="1" parent="VP3WnVtuw5z_MA5Xlhoa-83">
          <mxGeometry x="90" y="190" width="70" height="20" as="geometry"/>
        </mxCell>
        <mxCell id="VP3WnVtuw5z_MA5Xlhoa-12" value="API Call" style="text;html=1;strokeColor=none;fillColor=none;align=left;verticalAlign=middle;whiteSpace=wrap;rounded=0;dashed=1;" vertex="1" parent="VP3WnVtuw5z_MA5Xlhoa-83">
          <mxGeometry x="85" y="315" width="70" height="20" as="geometry"/>
        </mxCell>
        <mxCell id="VP3WnVtuw5z_MA5Xlhoa-45" value="function prop" style="text;html=1;strokeColor=none;fillColor=none;align=left;verticalAlign=middle;whiteSpace=wrap;rounded=0;fontColor=#FF0080;" vertex="1" parent="VP3WnVtuw5z_MA5Xlhoa-83">
          <mxGeometry x="20" y="350" width="110" height="20" as="geometry"/>
        </mxCell>
        <mxCell id="VP3WnVtuw5z_MA5Xlhoa-46" value="data prop" style="text;html=1;strokeColor=none;fillColor=none;align=left;verticalAlign=middle;whiteSpace=wrap;rounded=0;fontColor=#000000;" vertex="1" parent="VP3WnVtuw5z_MA5Xlhoa-83">
          <mxGeometry x="20" y="370" width="110" height="20" as="geometry"/>
        </mxCell>
        <mxCell id="VP3WnVtuw5z_MA5Xlhoa-71" value="Page" style="html=1;labelPosition=center;verticalLabelPosition=middle;verticalAlign=top;align=center;fontSize=12;outlineConnect=0;spacingTop=-6;shape=mxgraph.sitemap.page;fillColor=#f8cecc;strokeColor=#00FFFF;" vertex="1" parent="VP3WnVtuw5z_MA5Xlhoa-83">
          <mxGeometry x="20" y="240" width="50" height="30" as="geometry"/>
        </mxCell>
        <mxCell id="VP3WnVtuw5z_MA5Xlhoa-72" value="Webpage Component (class)" style="text;html=1;strokeColor=none;fillColor=none;align=left;verticalAlign=middle;whiteSpace=wrap;rounded=0;dashed=1;" vertex="1" parent="VP3WnVtuw5z_MA5Xlhoa-83">
          <mxGeometry x="90" y="240" width="70" height="20" as="geometry"/>
        </mxCell>
      </root>
    </mxGraphModel>
  </diagram>
</mxfile>
